<svg xmlns="http://www.w3.org/2000/svg" xmlns:xlink="http://www.w3.org/1999/xlink" width="500" zoomAndPan="magnify" viewBox="0 0 375 374.999991" height="500" preserveAspectRatio="xMidYMid meet" version="1.0"><defs><g/><clipPath id="98fbdc0abb"><path d="M 146.972656 148.421875 L 217.253906 148.421875 L 217.253906 218.699219 L 146.972656 218.699219 Z M 146.972656 148.421875 " clip-rule="nonzero"/></clipPath><clipPath id="ba0455e17f"><path d="M 182.113281 148.421875 C 162.707031 148.421875 146.972656 164.152344 146.972656 183.5625 C 146.972656 202.96875 162.707031 218.699219 182.113281 218.699219 C 201.519531 218.699219 217.253906 202.96875 217.253906 183.5625 C 217.253906 164.152344 201.519531 148.421875 182.113281 148.421875 Z M 182.113281 148.421875 " clip-rule="nonzero"/></clipPath><clipPath id="785a5744e3"><path d="M 204 192 L 205 192 L 205 193 L 204 193 Z M 204 192 " clip-rule="nonzero"/></clipPath><clipPath id="a65926dd70"><path d="M 142.402344 154.828125 L 212.273438 162.785156 L 205.464844 222.570312 L 135.59375 214.613281 Z M 142.402344 154.828125 " clip-rule="nonzero"/></clipPath><clipPath id="8d088b6712"><path d="M 142.402344 154.828125 L 212.273438 162.785156 L 205.464844 222.570312 L 135.59375 214.613281 Z M 142.402344 154.828125 " clip-rule="nonzero"/></clipPath><clipPath id="374603cffc"><path d="M 135 160 L 213 160 L 213 215 L 135 215 Z M 135 160 " clip-rule="nonzero"/></clipPath><clipPath id="30bf98967d"><path d="M 142.402344 154.828125 L 212.273438 162.785156 L 205.464844 222.570312 L 135.59375 214.613281 Z M 142.402344 154.828125 " clip-rule="nonzero"/></clipPath><clipPath id="cfbb34ca61"><path d="M 142.402344 154.828125 L 212.273438 162.785156 L 205.464844 222.570312 L 135.59375 214.613281 Z M 142.402344 154.828125 " clip-rule="nonzero"/></clipPath><clipPath id="79e5ee71b0"><path d="M 142.402344 154.832031 L 212.222656 162.78125 L 205.421875 222.476562 L 135.605469 214.527344 Z M 142.402344 154.832031 " clip-rule="nonzero"/></clipPath></defs><rect x="-37.5" width="450" fill="#ffffff" y="-37.499999" height="449.999989" fill-opacity="1"/><rect x="-37.5" width="450" fill="#ffffff" y="-37.499999" height="449.999989" fill-opacity="1"/><g clip-path="url(#98fbdc0abb)"><g clip-path="url(#ba0455e17f)"><path fill="#000000" d="M 146.972656 148.421875 L 217.253906 148.421875 L 217.253906 218.699219 L 146.972656 218.699219 Z M 146.972656 148.421875 " fill-opacity="1" fill-rule="nonzero"/></g></g><g clip-path="url(#785a5744e3)"><g clip-path="url(#a65926dd70)"><g clip-path="url(#8d088b6712)"><path fill="#ffffff" d="M 204.765625 192.382812 C 204.769531 192.386719 204.769531 192.386719 204.769531 192.390625 L 204.796875 192.375 C 204.785156 192.371094 204.777344 192.375 204.765625 192.375 C 204.765625 192.378906 204.765625 192.378906 204.765625 192.382812 " fill-opacity="1" fill-rule="nonzero"/></g></g></g><g clip-path="url(#374603cffc)"><g clip-path="url(#30bf98967d)"><g clip-path="url(#cfbb34ca61)"><g clip-path="url(#79e5ee71b0)"><path fill="#ffffff" d="M 212.019531 163.105469 C 211.859375 162.835938 211.527344 162.699219 211.09375 162.65625 C 209.71875 162.515625 207.320312 163.347656 206.238281 164.027344 C 206.21875 164.042969 201.738281 167.3125 201.613281 167.402344 L 184.722656 160.230469 C 184.347656 160.070312 183.746094 160.101562 183.410156 160.328125 L 181.964844 161.304688 C 181.628906 161.53125 181.648438 161.929688 181.988281 162.15625 L 195.472656 171.167969 L 196 171.519531 C 195.824219 171.648438 186.113281 178.75 184.203125 180.148438 C 184.054688 180.257812 183.859375 180.285156 183.683594 180.222656 L 178.828125 178.484375 C 178.4375 178.34375 177.851562 178.40625 177.527344 178.621094 C 177.207031 178.839844 177.230469 179.203125 177.582031 179.425781 C 177.582031 179.425781 181.203125 181.742188 181.855469 182.160156 L 135.71875 214.167969 C 135.625 214.230469 135.597656 214.359375 135.660156 214.457031 C 135.726562 214.550781 135.855469 214.578125 135.953125 214.515625 L 182.992188 183.855469 C 183.332031 185.429688 183.945312 188.820312 183.945312 188.820312 C 184.023438 189.234375 184.34375 189.390625 184.667969 189.171875 C 184.988281 188.957031 185.265625 188.433594 185.28125 188.015625 L 185.472656 182.828125 C 185.476562 182.640625 185.578125 182.46875 185.734375 182.371094 L 198.109375 174.652344 L 201.59375 191.09375 C 201.640625 191.320312 201.742188 191.488281 201.890625 191.519531 C 201.949219 191.53125 202.011719 191.515625 202.0625 191.480469 C 202.0625 191.480469 203.34375 190.691406 203.738281 190.402344 C 204.117188 190.125 204.347656 189.664062 204.339844 189.257812 L 203.996094 170.933594 L 208.628906 168.121094 L 208.664062 168.101562 C 209.726562 167.433594 211.4375 165.613281 211.964844 164.261719 C 212.148438 163.800781 212.1875 163.390625 212.019531 163.105469 " fill-opacity="1" fill-rule="nonzero"/></g></g></g></g><g fill="#f68712" fill-opacity="1"><g transform="translate(3.799526, 215.264258)"><g><path d="M 36.234375 -93.15625 C 34.660156 -93.15625 33 -92.757812 31.25 -91.96875 C 29.507812 -91.175781 28.054688 -89.785156 26.890625 -87.796875 C 25.734375 -85.804688 25.15625 -82.898438 25.15625 -79.078125 L 25.15625 -66.5 L 42.59375 -66.5 L 42.59375 -58.03125 L 25.15625 -58.03125 L 25.15625 0 L 15.4375 0 L 15.4375 -58.03125 L 3.109375 -58.03125 L 3.109375 -66.5 L 15.4375 -66.5 L 15.4375 -78.828125 C 15.4375 -86.546875 17.363281 -92.289062 21.21875 -96.0625 C 25.082031 -99.84375 29.960938 -101.734375 35.859375 -101.734375 C 36.773438 -101.734375 37.894531 -101.628906 39.21875 -101.421875 C 40.550781 -101.222656 41.882812 -100.914062 43.21875 -100.5 L 43.21875 -92.28125 C 41.882812 -92.695312 40.570312 -92.945312 39.28125 -93.03125 C 38 -93.113281 36.984375 -93.15625 36.234375 -93.15625 Z M 36.234375 -93.15625 "/></g></g></g><g fill="#f68712" fill-opacity="1"><g transform="translate(43.020426, 215.264258)"><g><path d="M 20.796875 0 L 10.953125 0 L 10.953125 -101.5 L 20.796875 -101.5 Z M 20.796875 0 "/></g></g></g><g fill="#f68712" fill-opacity="1"><g transform="translate(69.291919, 215.264258)"><g><path d="M 2.609375 -66.5 L 13.828125 -66.5 L 38.234375 -15.0625 L 61.265625 -66.5 L 71.734375 -66.5 L 26.15625 32.75 L 15.6875 32.75 L 32.875 -4.484375 Z M 2.609375 -66.5 "/></g></g></g><g fill="#f68712" fill-opacity="1"><g transform="translate(218.635421, 214.27924)"><g><path d="M 51.921875 -36.859375 C 51.921875 -40.585938 50.984375 -43.675781 49.109375 -46.125 C 47.242188 -48.582031 44.320312 -49.8125 40.34375 -49.8125 C 36.269531 -49.8125 33.257812 -48.503906 31.3125 -45.890625 C 29.363281 -43.273438 28.390625 -40.265625 28.390625 -36.859375 L 28.390625 0 L 8.96875 0 L 8.96875 -66.484375 L 28.265625 -66.484375 L 28.265625 -57.78125 L 28.390625 -57.78125 C 29.628906 -60.019531 31.179688 -61.800781 33.046875 -63.125 C 34.921875 -64.457031 36.8125 -65.453125 38.71875 -66.109375 C 40.632812 -66.773438 42.359375 -67.210938 43.890625 -67.421875 C 45.421875 -67.628906 46.519531 -67.734375 47.1875 -67.734375 C 52.832031 -67.734375 57.421875 -66.488281 60.953125 -64 C 64.484375 -61.507812 67.078125 -58.25 68.734375 -54.21875 C 70.390625 -50.195312 71.21875 -45.90625 71.21875 -41.34375 L 71.21875 0 L 51.921875 0 Z M 51.921875 -36.859375 "/></g></g></g><g fill="#f68712" fill-opacity="1"><g transform="translate(292.720916, 214.27924)"><g><path d="M 24.65625 -27.890625 C 25.320312 -23.742188 27.207031 -20.523438 30.3125 -18.234375 C 33.425781 -15.953125 37.019531 -14.8125 41.09375 -14.8125 C 43.914062 -14.8125 46.71875 -15.515625 49.5 -16.921875 C 52.28125 -18.335938 54.414062 -20.289062 55.90625 -22.78125 L 69.984375 -13.578125 C 64.421875 -3.523438 54.875 1.5 41.34375 1.5 C 34.613281 1.5 28.488281 0.0234375 22.96875 -2.921875 C 17.445312 -5.867188 13.046875 -9.957031 9.765625 -15.1875 C 6.492188 -20.414062 4.859375 -26.476562 4.859375 -33.375 C 4.859375 -38.1875 5.789062 -42.6875 7.65625 -46.875 C 9.519531 -51.070312 12.070312 -54.765625 15.3125 -57.953125 C 18.550781 -61.148438 22.285156 -63.640625 26.515625 -65.421875 C 30.753906 -67.210938 35.28125 -68.109375 40.09375 -68.109375 C 46.738281 -68.109375 52.53125 -66.695312 57.46875 -63.875 C 62.40625 -61.050781 66.265625 -57.148438 69.046875 -52.171875 C 71.828125 -47.191406 73.21875 -41.421875 73.21875 -34.859375 C 73.21875 -33.703125 73.21875 -32.539062 73.21875 -31.375 C 73.21875 -30.21875 73.132812 -29.054688 72.96875 -27.890625 Z M 53.796875 -40.71875 C 53.710938 -42.375 53.148438 -44.09375 52.109375 -45.875 C 51.066406 -47.664062 49.53125 -49.179688 47.5 -50.421875 C 45.46875 -51.671875 42.832031 -52.296875 39.59375 -52.296875 C 36.6875 -52.296875 34.195312 -51.628906 32.125 -50.296875 C 30.050781 -48.972656 28.429688 -47.414062 27.265625 -45.625 C 26.109375 -43.84375 25.40625 -42.207031 25.15625 -40.71875 Z M 53.796875 -40.71875 "/></g></g></g><g fill="#f68712" fill-opacity="1"><g transform="translate(149.691367, 248.568965)"><g><path d="M 5.0625 -20.203125 L 5.0625 -14.859375 L 7.71875 -14.859375 L 7.71875 -12.53125 L 5.0625 -12.53125 L 5.0625 0 L 2.53125 0 L 2.53125 -12.53125 L 0.984375 -12.53125 L 0.984375 -14.859375 L 2.53125 -14.859375 L 2.53125 -20.203125 Z M 5.0625 -20.203125 "/></g></g></g><g fill="#f68712" fill-opacity="1"><g transform="translate(157.2781, 248.568965)"><g><path d="M 9.234375 -12.265625 C 8.984375 -12.460938 8.742188 -12.625 8.515625 -12.75 C 8.296875 -12.875 8.03125 -12.9375 7.71875 -12.9375 C 6.769531 -12.9375 6.046875 -12.515625 5.546875 -11.671875 C 5.054688 -10.828125 4.8125 -9.46875 4.8125 -7.59375 L 4.8125 0 L 2.28125 0 L 2.28125 -14.859375 L 4.8125 -14.859375 L 4.8125 -13.25 L 4.875 -13.25 C 5.476562 -14.070312 6.015625 -14.613281 6.484375 -14.875 C 6.960938 -15.144531 7.519531 -15.28125 8.15625 -15.28125 C 8.539062 -15.28125 8.925781 -15.210938 9.3125 -15.078125 C 9.707031 -14.953125 10.082031 -14.785156 10.4375 -14.578125 Z M 9.234375 -12.265625 "/></g></g></g><g fill="#f68712" fill-opacity="1"><g transform="translate(167.867907, 248.568965)"><g><path d="M 13.4375 -12.75 L 13.4375 -14.859375 L 15.96875 -14.859375 L 15.96875 0 L 13.4375 0 L 13.4375 -2.0625 L 13.375 -2.0625 C 12.070312 -0.414062 10.363281 0.40625 8.25 0.40625 C 6.1875 0.40625 4.484375 -0.347656 3.140625 -1.859375 C 1.804688 -3.378906 1.140625 -5.226562 1.140625 -7.40625 C 1.140625 -9.675781 1.8125 -11.554688 3.15625 -13.046875 C 4.507812 -14.535156 6.21875 -15.28125 8.28125 -15.28125 C 9.3125 -15.28125 10.265625 -15.054688 11.140625 -14.609375 C 12.015625 -14.171875 12.757812 -13.550781 13.375 -12.75 Z M 8.578125 -12.9375 C 7.222656 -12.9375 6.078125 -12.414062 5.140625 -11.375 C 4.203125 -10.34375 3.734375 -9.082031 3.734375 -7.59375 C 3.734375 -5.988281 4.191406 -4.640625 5.109375 -3.546875 C 6.023438 -2.460938 7.191406 -1.921875 8.609375 -1.921875 C 10.097656 -1.921875 11.296875 -2.4375 12.203125 -3.46875 C 13.109375 -4.507812 13.5625 -5.875 13.5625 -7.5625 C 13.5625 -9.09375 13.097656 -10.367188 12.171875 -11.390625 C 11.242188 -12.421875 10.046875 -12.9375 8.578125 -12.9375 Z M 8.578125 -12.9375 "/></g></g></g><g fill="#f68712" fill-opacity="1"><g transform="translate(186.107648, 248.568965)"><g><path d="M 2.90625 -14.859375 L 7.34375 -4.875 L 11.765625 -14.859375 L 14.609375 -14.859375 L 7.34375 0.984375 L 0.03125 -14.859375 Z M 3.09375 0 Z M 3.09375 0 "/></g></g></g><g fill="#f68712" fill-opacity="1"><g transform="translate(200.743706, 248.568965)"><g><path d="M 15.34375 -6.890625 L 3.671875 -6.890625 C 3.710938 -5.421875 4.195312 -4.222656 5.125 -3.296875 C 6.050781 -2.378906 7.1875 -1.921875 8.53125 -1.921875 C 9.488281 -1.921875 10.328125 -2.164062 11.046875 -2.65625 C 11.773438 -3.144531 12.445312 -3.925781 13.0625 -5 L 15.21875 -3.765625 C 14.5 -2.429688 13.550781 -1.398438 12.375 -0.671875 C 11.207031 0.046875 9.863281 0.40625 8.34375 0.40625 C 6.894531 0.40625 5.609375 0.0625 4.484375 -0.625 C 3.367188 -1.320312 2.519531 -2.253906 1.9375 -3.421875 C 1.363281 -4.597656 1.078125 -5.867188 1.078125 -7.234375 C 1.078125 -8.753906 1.363281 -10.125 1.9375 -11.34375 C 2.519531 -12.570312 3.359375 -13.535156 4.453125 -14.234375 C 5.554688 -14.929688 6.832031 -15.28125 8.28125 -15.28125 C 9.695312 -15.28125 10.945312 -14.9375 12.03125 -14.25 C 13.113281 -13.5625 13.941406 -12.613281 14.515625 -11.40625 C 15.085938 -10.207031 15.375 -8.863281 15.375 -7.375 C 15.375 -7.21875 15.363281 -7.054688 15.34375 -6.890625 Z M 12.6875 -9.046875 C 12.46875 -10.203125 11.945312 -11.140625 11.125 -11.859375 C 10.3125 -12.578125 9.375 -12.9375 8.3125 -12.9375 C 7.28125 -12.9375 6.3125 -12.5625 5.40625 -11.8125 C 4.5 -11.0625 3.960938 -10.140625 3.796875 -9.046875 Z M 12.6875 -9.046875 "/></g></g></g><g fill="#f68712" fill-opacity="1"><g transform="translate(217.149978, 248.568965)"><g><path d="M 4.875 -26.09375 L 4.875 0 L 2.34375 0 L 2.34375 -26.09375 Z M 4.875 -26.09375 "/></g></g></g><g fill="#f68712" fill-opacity="1"><g transform="translate(224.325758, 248.568965)"><g/></g></g><g fill="#f68712" fill-opacity="1"><g transform="translate(234.062045, 248.568965)"><g><path d="M 4.875 -2.09375 L 4.8125 -2.09375 L 4.8125 8.34375 L 2.28125 8.34375 L 2.28125 -14.859375 L 4.8125 -14.859375 L 4.8125 -12.75 L 4.875 -12.75 C 5.476562 -13.570312 6.222656 -14.195312 7.109375 -14.625 C 7.992188 -15.0625 8.957031 -15.28125 10 -15.28125 C 11.320312 -15.28125 12.53125 -14.929688 13.625 -14.234375 C 14.726562 -13.535156 15.582031 -12.578125 16.1875 -11.359375 C 16.800781 -10.148438 17.109375 -8.832031 17.109375 -7.40625 C 17.109375 -5.96875 16.8125 -4.640625 16.21875 -3.421875 C 15.632812 -2.210938 14.785156 -1.269531 13.671875 -0.59375 C 12.566406 0.0703125 11.332031 0.40625 9.96875 0.40625 C 8.945312 0.40625 7.992188 0.195312 7.109375 -0.21875 C 6.222656 -0.644531 5.476562 -1.269531 4.875 -2.09375 Z M 9.484375 -12.9375 C 8.660156 -12.9375 7.878906 -12.710938 7.140625 -12.265625 C 6.410156 -11.828125 5.816406 -11.1875 5.359375 -10.34375 C 4.910156 -9.5 4.6875 -8.582031 4.6875 -7.59375 C 4.6875 -6.007812 5.132812 -4.664062 6.03125 -3.5625 C 6.925781 -2.46875 8.097656 -1.921875 9.546875 -1.921875 C 10.535156 -1.921875 11.410156 -2.160156 12.171875 -2.640625 C 12.929688 -3.117188 13.507812 -3.789062 13.90625 -4.65625 C 14.3125 -5.519531 14.515625 -6.488281 14.515625 -7.5625 C 14.515625 -9.144531 14.050781 -10.4375 13.125 -11.4375 C 12.195312 -12.4375 10.984375 -12.9375 9.484375 -12.9375 Z M 9.484375 -12.9375 "/></g></g></g><g fill="#f68712" fill-opacity="1"><g transform="translate(252.301786, 248.568965)"><g><path d="M 13.4375 -12.75 L 13.4375 -14.859375 L 15.96875 -14.859375 L 15.96875 0 L 13.4375 0 L 13.4375 -2.0625 L 13.375 -2.0625 C 12.070312 -0.414062 10.363281 0.40625 8.25 0.40625 C 6.1875 0.40625 4.484375 -0.347656 3.140625 -1.859375 C 1.804688 -3.378906 1.140625 -5.226562 1.140625 -7.40625 C 1.140625 -9.675781 1.8125 -11.554688 3.15625 -13.046875 C 4.507812 -14.535156 6.21875 -15.28125 8.28125 -15.28125 C 9.3125 -15.28125 10.265625 -15.054688 11.140625 -14.609375 C 12.015625 -14.171875 12.757812 -13.550781 13.375 -12.75 Z M 8.578125 -12.9375 C 7.222656 -12.9375 6.078125 -12.414062 5.140625 -11.375 C 4.203125 -10.34375 3.734375 -9.082031 3.734375 -7.59375 C 3.734375 -5.988281 4.191406 -4.640625 5.109375 -3.546875 C 6.023438 -2.460938 7.191406 -1.921875 8.609375 -1.921875 C 10.097656 -1.921875 11.296875 -2.4375 12.203125 -3.46875 C 13.109375 -4.507812 13.5625 -5.875 13.5625 -7.5625 C 13.5625 -9.09375 13.097656 -10.367188 12.171875 -11.390625 C 11.242188 -12.421875 10.046875 -12.9375 8.578125 -12.9375 Z M 8.578125 -12.9375 "/></g></g></g><g fill="#f68712" fill-opacity="1"><g transform="translate(270.541527, 248.568965)"><g><path d="M 9.234375 -12.265625 C 8.984375 -12.460938 8.742188 -12.625 8.515625 -12.75 C 8.296875 -12.875 8.03125 -12.9375 7.71875 -12.9375 C 6.769531 -12.9375 6.046875 -12.515625 5.546875 -11.671875 C 5.054688 -10.828125 4.8125 -9.46875 4.8125 -7.59375 L 4.8125 0 L 2.28125 0 L 2.28125 -14.859375 L 4.8125 -14.859375 L 4.8125 -13.25 L 4.875 -13.25 C 5.476562 -14.070312 6.015625 -14.613281 6.484375 -14.875 C 6.960938 -15.144531 7.519531 -15.28125 8.15625 -15.28125 C 8.539062 -15.28125 8.925781 -15.210938 9.3125 -15.078125 C 9.707031 -14.953125 10.082031 -14.785156 10.4375 -14.578125 Z M 9.234375 -12.265625 "/></g></g></g><g fill="#f68712" fill-opacity="1"><g transform="translate(281.131334, 248.568965)"><g><path d="M 5.0625 -20.203125 L 5.0625 -14.859375 L 7.71875 -14.859375 L 7.71875 -12.53125 L 5.0625 -12.53125 L 5.0625 0 L 2.53125 0 L 2.53125 -12.53125 L 0.984375 -12.53125 L 0.984375 -14.859375 L 2.53125 -14.859375 L 2.53125 -20.203125 Z M 5.0625 -20.203125 "/></g></g></g><g fill="#f68712" fill-opacity="1"><g transform="translate(288.718068, 248.568965)"><g><path d="M 14.296875 0 L 11.765625 0 L 11.765625 -8.671875 C 11.765625 -10.160156 11.535156 -11.242188 11.078125 -11.921875 C 10.628906 -12.597656 9.816406 -12.9375 8.640625 -12.9375 C 7.285156 -12.9375 6.328125 -12.472656 5.765625 -11.546875 C 5.210938 -10.617188 4.9375 -9.207031 4.9375 -7.3125 L 4.9375 0 L 2.40625 0 L 2.40625 -14.859375 L 4.9375 -14.859375 L 4.9375 -13.0625 L 5 -13.0625 C 5.519531 -13.78125 6.125 -14.328125 6.8125 -14.703125 C 7.5 -15.085938 8.304688 -15.28125 9.234375 -15.28125 C 10.898438 -15.28125 12.160156 -14.765625 13.015625 -13.734375 C 13.867188 -12.710938 14.296875 -11.128906 14.296875 -8.984375 Z M 14.296875 0 "/></g></g></g><g fill="#f68712" fill-opacity="1"><g transform="translate(305.408865, 248.568965)"><g><path d="M 15.34375 -6.890625 L 3.671875 -6.890625 C 3.710938 -5.421875 4.195312 -4.222656 5.125 -3.296875 C 6.050781 -2.378906 7.1875 -1.921875 8.53125 -1.921875 C 9.488281 -1.921875 10.328125 -2.164062 11.046875 -2.65625 C 11.773438 -3.144531 12.445312 -3.925781 13.0625 -5 L 15.21875 -3.765625 C 14.5 -2.429688 13.550781 -1.398438 12.375 -0.671875 C 11.207031 0.046875 9.863281 0.40625 8.34375 0.40625 C 6.894531 0.40625 5.609375 0.0625 4.484375 -0.625 C 3.367188 -1.320312 2.519531 -2.253906 1.9375 -3.421875 C 1.363281 -4.597656 1.078125 -5.867188 1.078125 -7.234375 C 1.078125 -8.753906 1.363281 -10.125 1.9375 -11.34375 C 2.519531 -12.570312 3.359375 -13.535156 4.453125 -14.234375 C 5.554688 -14.929688 6.832031 -15.28125 8.28125 -15.28125 C 9.695312 -15.28125 10.945312 -14.9375 12.03125 -14.25 C 13.113281 -13.5625 13.941406 -12.613281 14.515625 -11.40625 C 15.085938 -10.207031 15.375 -8.863281 15.375 -7.375 C 15.375 -7.21875 15.363281 -7.054688 15.34375 -6.890625 Z M 12.6875 -9.046875 C 12.46875 -10.203125 11.945312 -11.140625 11.125 -11.859375 C 10.3125 -12.578125 9.375 -12.9375 8.3125 -12.9375 C 7.28125 -12.9375 6.3125 -12.5625 5.40625 -11.8125 C 4.5 -11.0625 3.960938 -10.140625 3.796875 -9.046875 Z M 12.6875 -9.046875 "/></g></g></g><g fill="#f68712" fill-opacity="1"><g transform="translate(321.815136, 248.568965)"><g><path d="M 9.234375 -12.265625 C 8.984375 -12.460938 8.742188 -12.625 8.515625 -12.75 C 8.296875 -12.875 8.03125 -12.9375 7.71875 -12.9375 C 6.769531 -12.9375 6.046875 -12.515625 5.546875 -11.671875 C 5.054688 -10.828125 4.8125 -9.46875 4.8125 -7.59375 L 4.8125 0 L 2.28125 0 L 2.28125 -14.859375 L 4.8125 -14.859375 L 4.8125 -13.25 L 4.875 -13.25 C 5.476562 -14.070312 6.015625 -14.613281 6.484375 -14.875 C 6.960938 -15.144531 7.519531 -15.28125 8.15625 -15.28125 C 8.539062 -15.28125 8.925781 -15.210938 9.3125 -15.078125 C 9.707031 -14.953125 10.082031 -14.785156 10.4375 -14.578125 Z M 9.234375 -12.265625 "/></g></g></g></svg>